<svg xmlns="http://www.w3.org/2000/svg" viewBox="0 0 100 100">
<!-- SVG created with Arrow, by QuiverAI (https://quiver.ai) -->
  <style type="text/css">.cls-0 {fill:#1D1D1D;stroke:#1D1D1D;stroke-width:0.25;stroke-miterlimit:10;}</style>
  <path class="cls-0" d="m37.7 17c-0.5 7.2 0.6 17.2 10.5 27.2v-27.2h-10.5z"/>
  <path class="cls-0" d="m51.7 17v27.3c6.3-5.6 11.5-13.1 10.7-27.3h-10.7z"/>
  <path class="cls-0" d="m50 4c-2.6 0-4.8 2.2-4.8 4.7 0 2.7 2 4.7 4.8 4.7 2.7 0 4.7-2 4.7-4.5 0-2.7-2-4.9-4.7-4.9z"/>
  <path class="cls-0" d="m15.4 49.5c1.5 0.2 2.8 0.8 4.3 1.9 2.7-7.2 8.2-13.8 16.4-18.5-0.5-1.3-1-2.6-1.4-4.6-6.5 2.8-15.9 10.3-19.3 21.2z"/>
  <path class="cls-0" d="m64.1 32.8c7 3.3 13.3 9.6 16.4 18.5 1.1-0.9 2.6-1.6 4.2-1.8-2.8-7.7-8.9-16.1-19.1-21.2-0.4 1.7-0.9 3.1-1.5 4.5z"/>
  <path class="cls-0" d="m14 53.3c-2.6 0-4.8 2-4.8 4.7 0 2.6 2 4.7 4.7 4.7s4.9-1.9 4.9-4.6c0-2.6-2-4.8-4.8-4.8z"/>
  <path class="cls-0" d="m86.1 53.3c-2.5-0.1-5.1 1.6-5.1 4.8 0 2.5 1.8 4.6 5.1 4.6 2.5-0.1 4.7-2.1 4.7-4.6s-2-4.7-4.7-4.8z"/>
  <path class="cls-0" d="m2.2 66.4c-0.6 9 1.9 18 10 26.8v-26.8h-10z"/>
  <path class="cls-0" d="m15.7 66.4v26.8c6.7-5.8 11.4-13.7 10.7-26.8h-10.7z"/>
  <path class="cls-0" d="m25.8 87c6.3 5.3 13.6 8.8 24.1 8.8 8.5 0 16-2.1 24.4-8.6-0.7-1.1-1.5-2.6-2.2-4.5-5.7 5.2-12.7 8.4-21.7 8.4-8 0.1-15.3-2.4-22.3-8.4-0.5 1.4-1.7 3.4-2.3 4.3z"/>
  <path class="cls-0" d="m73.6 66.4c-0.8 10.7 3.2 20.2 10.6 26.8v-26.8h-10.6z"/>
  <path class="cls-0" d="m88 92.6c5.8-5.4 10.4-13 9.9-26.2h-9.9v26.8-0.6z"/>
</svg>