<svg width="24" height="24" viewBox="125 150 350 400" fill="none" xmlns="http://www.w3.org/2000/svg">
  <path fill-rule="evenodd" clip-rule="evenodd" d="M342.8,187c26.7,16.3,29.9,32.3,11.6,58.1c-16.9,23.8-14.5,30.8,14.7,42.9c21.8,9,30.7,0.2,25.4-25.2
		c-5.7-27.4,2.9-29.1,27-5.3c28.5,28.2,31.8,41,28.2,109c-4.5,86.3-33.9,137.2-96,166.7c-50.8,24-104.8,14.3-152.2-27.4
		c-37.8-33.2-52.8-71.7-56-142.7c-3.2-71.9-0.3-83.1,29-112.1c26.4-26.2,34.2-26.2,20.7,0c-10.3,20-5.1,51.5,8.6,51.5
		c5.6,0,9.5-9.1,11.6-27.3c4.2-36.1,12.2-44.4,50.4-52.4c35.7-7.4,52-19.8,47.7-36.2C309.8,172.5,319.4,172.7,342.8,187z
		 M259.8,296.4c-12.7,4.5-32.6,17.7-44.1,29.2c-20.2,20.2-20.9,22.4-21.5,66.7c-0.3,25.2,1.9,49.1,5,53.2c3,4.1,16.1,7.4,29.1,7.4
		c21.7,0,23.2,1.1,19.5,13.3c-7.5,24.8-6.4,31,5.6,31.3c6.5,0.2,16.7,2.6,22.7,5.3c7.2,3.3,12.6,2.3,15.8-2.9
		c3.9-6.4,6.6-6.4,13.9-0.4c5.3,4.4,12.2,5.5,16.7,2.6c4.2-2.7,12.9-4.9,19.4-4.9c11.6,0,14.1-10,8.2-32.4
		c-1.7-6.4,3.4-9.4,18.3-10.7c11.4-1,23.2-4.4,26.3-7.4c3.1-3,6.4-24.5,7.3-47.6c2.1-53.4-9.5-74.5-52.7-96
		C315.3,285.9,293.8,284.3,259.8,296.4z M308.3,424.8c8.7,10.5,15.3,39.8,8.9,39.8c-2.9,0-8.4-3.1-12.2-6.8c-5.2-5.2-9.1-5-16.1,0.8
		c-14.5,12-17.9,2-7.2-20.6C292.2,416.1,298.4,413,308.3,424.8z M368.2,383.2c18.4,19.7,15.8,38.4-5.9,43.2
		c-18.4,4.1-46.9-8.8-46.9-21.1c0-6.4,29.5-34.5,36.6-34.8C354.3,370.3,361.6,376.1,368.2,383.2z M266.3,383.1
		c17.5,16.4,17.2,25.8-0.9,37.7c-19.9,13-50.4,6.5-50.4-10.8c0-13,21.3-39.7,31.6-39.7C250,370.2,258.8,376,266.3,383.1z" fill="currentColor"/>
</svg>
