<svg width="24" height="24" viewBox="110 140 390 390" fill="none" xmlns="http://www.w3.org/2000/svg">
  <path fill-rule="evenodd" clip-rule="evenodd" d="M380.9,298.1h-80.6h-80.6l-13.3,141.2l-26.7,13.3v26.7V506h121.1H422v-26.7v-26.7l-26.7-13.3L380.9,298.1z M186.4,251.4v6.7l13.3,20h101.1H402l13.3-20v-6.7v-6.7H300.9H186.4V251.4z M206.4,150.3v6.7v20h17.2h10.6v-16.7v-16.7h26.7h26.7v16.7V177h13.3h13.3v-16.7v-16.7h26.7h26.7v16.7V177h10.6h17.2v-6.7V157v-13.3h20h20V167v23.3l-20,14.4V218v13.3H300.9H186.4V218v-13.3l-20-14.4V167v-23.3h20h20V150.3z" fill="currentColor"/>
</svg>