<svg width="24" height="24" viewBox="0 0 600 600" fill="none" xmlns="http://www.w3.org/2000/svg">
  <path fill-rule="evenodd" clip-rule="evenodd" d="M300,60c-120,0-195,80-195,190c0,45,10,82,25,115c-15,20-40,45-60,55c25,0,55-10,75-25
    c5,8,12,18,20,28c-20,25-50,52-75,65c30-5,65-20,85-40c25,28,60,52,100,62c-10,15-25,35-45,48
    c25-5,50-18,68-35c8,2,18,2,28,2c120,0,195-80,195-190C520,140,420,60,300,60z
    M210,225c0-25,18-45,40-45s40,20,40,45s-18,45-40,45S210,250,210,225z
    M390,225c0-25,18-45,40-45s40,20,40,45s-18,45-40,45S390,250,390,225z
    M300,410c-35,0-60-20-60-20c0,0,10-35,30-50c12-9,22-12,30-12s18,3,30,12c20,15,30,50,30,50
    C360,390,335,410,300,410z" fill="currentColor"/>
</svg>
