<svg width="24" height="24" viewBox="0 0 595.3 841.9" fill="none" xmlns="http://www.w3.org/2000/svg">
  <path fill-rule="evenodd" clip-rule="evenodd" d="M318.5,431c1.9-2.5,3.8-4.5,5.7-7c-5.1-12.7-10.8-25.4-14.6-35c30.5-41.3,87.1-60.4,97.9-127.2
			c-66.8,10.8-86.5,66.8-126.6,97.9c-10.8-4.5-24.2-9.5-45.2-17.8c27.3,45.8,24.8,51.5-17.2,70c0.6,11.4,1.3,23.5,1.9,40.7
			c15.9-3.8,36.9-3.8,39.4-10.8C272.7,406.2,290.5,403.6,318.5,431z M228.8,534c77,31.2,169.8,0,216.9-72.5s36.3-169.2-25.4-230.2c-52.2-51.5-141.8-70.6-186.4-41.3
			c26.1,5.1,54.7,10.2,82.7,15.9c-111.3,7-178.7,69.3-163.5,163.5c3.2-10.8,5.7-16.5,7-22.3c19.1-86.5,90.3-127.2,174.3-100.5
			c9.5,3.2,21.6,1.9,32.4,0c45.2-6.4,63.6,11.4,54.7,52.2c-4.5,21.6-8.9,44.5-9.5,66.8c-2.5,73.1-50.9,138-120.8,158.4
			C270.8,529.6,249.8,530.8,228.8,534z" fill="currentColor"/>
</svg>