<svg width="24" height="24" viewBox="0 0 595.3 841.9" fill="none" xmlns="http://www.w3.org/2000/svg">
  <path fill-rule="evenodd" clip-rule="evenodd" d="M455.3,202.6c0,35.2-17.4,63.3-72.8,117.5l-52.4,51.2l42.7-22c23.5-12.1,53-28.1,65.5-35.6
			s24.5-11.9,26.5-9.9s-1.8,16.1-8.5,31.3c-13.1,29.5-55.3,62.4-100.4,78c-36.9,12.8-26.6,16.2,26,8.5c26.9-3.9,48.9-5,48.9-2.5
			s-8.4,13-18.7,23.3c-21.7,21.7-59.9,33.7-92.8,29.3c-32.1-4.3-23.2,5.2,13.7,14.7c16.8,4.3,30.5,9.9,30.5,12.5
			c0,7.2-41.7,14.3-82.5,14.2c-43.3-0.1-92-20.8-102.3-43.4c-10.1-22.3,1.9-40.8,45.4-70c41-27.5,181.2-164.9,206.4-202.4
			C448.3,171.2,455.3,172.7,455.3,202.6z M293.9,169.2c12.8,24.8,8.6,64.3-12.3,116.1c-8.5,20.9-14.3,39.1-13,40.5c1.3,1.3,16.9-18.5,34.7-44
			c17.7-25.5,34.2-46.4,36.5-46.4s6.1,7.6,8.5,16.8c3.9,15.2-0.5,21.4-46.7,64.9c-50.8,47.9-96.7,83.3-108.1,83.3
			c-3.3,0,3.1-18.6,14.2-41.3c22-44.9,54.3-142,61.1-183.4C273.8,144.7,280.4,143,293.9,169.2z" fill="currentColor"/>
</svg>