<svg width="24" height="24" viewBox="0 0 595.3 841.9" fill="none" xmlns="http://www.w3.org/2000/svg">
  <path fill-rule="evenodd" clip-rule="evenodd" d="M172.7,371.7c44,26.5,84.6,50.9,134.2,80.7c-18.6-61.2-108.2-87.7-50.2-159.9l-62.9-39.9l32-44.2L132,175.9
			l-5.2,9.4l44.8,33.4l-49,59.9l70.9,58.4L172.7,371.7L172.7,371.7z M472.6,520.7c-62.6-112-96.5-223.2-12.3-343.8c-37.7,0-63.4,1.6-88.8-0.4c-25.9-2.1-38.6,6.1-44.3,32.6
			c-8.1,37.2-16.8,73.9-52.6,98.9c-25.7,18-14.3,41.1,2.4,63c22.2,29,43.7,59.3,61.6,91.1C364.5,508.3,415.8,534.3,472.6,520.7
			L472.6,520.7z" fill="currentColor"/>
</svg>