<svg width="24" height="24" viewBox="0 0 595.3 841.9" fill="none" xmlns="http://www.w3.org/2000/svg">
  <path fill-rule="evenodd" clip-rule="evenodd" d="M296.5,185.2c99.7-0.3,182.2,81.7,181.9,180.8c-0.2,96.9-83.3,181-179.4,181.5c-97.9,0.6-184.2-83.4-182-181.5
		C119.3,262.4,190.9,188.7,296.5,185.2L296.5,185.2z M291,530.4c-3.9-11.1-7.1-20.4-17.1-22.6c-27.3-6-52.1-16.7-72.7-36.1
		c-6.8-6.4-10.8-0.6-15,3.3c-5.9,5.5-3.9,10.3,1.7,15.1C217.1,515,249.6,530.8,291,530.4z M445.2,290.5c-11.4,11-16,19.9-11,34.1
		c9.9,27.8,9.2,56.6-0.7,84.4c-3.2,9.1-4.2,15,6.2,19.1c13.3,5.2,13.2-5.7,15.4-12.6C468.1,373.6,465.1,332.8,445.2,290.5
		L445.2,290.5z M430.8,267.3c-30.5-39-67.3-59.6-112.1-66.8c-7-1.1-14.6-4.1-16.9,6.4c-2,9.8,1.7,14.5,12.3,15.9
		c32.1,4.2,60,17.8,83.6,40.2C406.1,271,416.4,269.6,430.8,267.3L430.8,267.3z M163,268.6c15.1,2.4,25.7,3,35-6.1
		c22.5-22,49.9-34.6,80.7-39.4c9-1.4,16.1-2.8,14.7-14.2c-1.7-12.7-10-9.4-18.2-8.1C230,207.8,193.8,229.3,163,268.6L163,268.6z
		 M308.9,529.8c57,1.9,92.1-33.8,125.5-71.4c4.1-4.6,14.8-12.4,2.8-19.9c-9.8-6.2-16.1-1-22,8.3c-19.3,30.8-48.3,48.6-82.7,57.7
		C319,508.1,311.8,515.5,308.9,529.8L308.9,529.8z M151.1,286.6c-26.6,59.3-26.1,113.8,6.2,166.9c4.1,6.8,6.8,19.6,19.8,11.5
		c12.1-7.6,3.9-15.6-0.6-23.1c-22.8-37.9-29.4-78.2-14.8-120.3C166.3,308,163.5,298.7,151.1,286.6L151.1,286.6z M300.4,246.1
		c-67.2-1.2-121.9,51.5-122.6,118.3c-0.7,65.1,51.8,119.7,116.8,121.7c65.5,2,121.7-52.5,122.6-118.9
		C418,301.9,365.4,247.4,300.4,246.1L300.4,246.1z M200.9,302.9h192.4c-31.9,59.4-62.5,116.5-95.9,178.6
		C264.4,420.4,233.5,363.2,200.9,302.9L200.9,302.9z M297.3,422.4l48.7-91.7h-98C265,362.2,280.1,390.4,297.3,422.4z" fill="currentColor"/>
</svg>