<svg width="24" height="24" viewBox="0 0 595.3 841.9" fill="none" xmlns="http://www.w3.org/2000/svg">
  <path fill-rule="evenodd" clip-rule="evenodd" d="M225.1,197c-18.6,26.1-16.8,28.1,12.3,13.3c53.8-27.5,111.9-22.4,166.7,14.4c43.2,29.1,66,69,69.8,122.4
		c3.9,54.1-12.8,96.7-52.1,132.9c-35.6,32.8-64.9,44.3-112.7,44.3S232,512.8,196.4,480c-38.8-35.7-55.9-78.9-52.2-131.2
		c1.6-22.6,7.9-50.7,13.9-62.3l11-21.2l-22.9,14.2c-12.6,7.8-24,13.1-25.4,11.7s6.2-16.3,16.8-33.3c15.6-25,17.9-33,12.2-42.1
		c-10.2-16.3-8.8-18.3,7.7-10.7c12.4,5.6,19.7,3.6,45.4-12.3c16.8-10.5,31.7-18,33-16.6C237.3,177.3,232.4,186.8,225.1,197z
		 M199.7,254.5c6.2,13,6,14.3-0.9,7.8c-4.6-4.3-11.3-7.8-14.9-7.6s0.1,5.8,8.3,12.6c12.9,10.8,15.4,20,19.3,71
		c3.4,45.2,7.8,64.1,19.1,82.3c13.8,22.3,63.2,59.8,78.7,59.8c3.9,0,19.7-8.3,35.1-18.6c44.6-29.6,58.2-63,63.3-156.4l1.5-27.4
		l-25.4-2.3c-14-1.3-37.4-6.5-52.2-11.7c-18.2-6.4-30.3-7.5-38-3.5c-6.1,3.3-23.6,8.8-38.7,12.3c-26.5,6.1-28.1,5.6-45.2-13.9
		C195,241.9,193.4,241.2,199.7,254.5z M352,284.2l42.8,11l-4.3,47.2c-2.4,25.9-7.1,52.8-10.6,59.7c-9.4,18.7-37.1,47.1-55.4,56.6
		c-14.4,7.6-18.9,6.8-41.9-6.9c-38.6-23-53.4-51.6-56.8-109.6l-2.8-48.6l27.4-4.5c15.1-2.5,31.7-6.9,36.9-9.9
		C300.4,271.5,303.8,271.8,352,284.2z M297.9,289.8c-2.5,2.5-16.6,6.3-31.2,8.3l-26.6,3.6l2.1,43.8c2.4,51.3,15.3,76.8,47.9,94.3
		c21.7,11.7,22.2,11.7,39.4-1.1c30.4-22.5,45.6-51.2,46.6-88c0.5-18.5,1.2-37.1,1.6-41.3c0.3-4.3-9.3-9.5-21.3-11.7
		c-12.1-2.2-29.1-5.9-37.9-8.3C309.7,287.1,300.4,287.3,297.9,289.8z" fill="currentColor"/>
</svg>