<svg width="24" height="24" viewBox="0 0 595.3 841.9" fill="none" xmlns="http://www.w3.org/2000/svg">
  <path fill-rule="evenodd" clip-rule="evenodd" d="M150.2,249.9c-44,23.9-56.2,58.2-39.4,104.7c13.6,38.1,44,59.5,76.9,78.9c44.6,26.5,89.2,53,109.9,112.5
		c17.5-52.4,53.7-78.2,92.4-102.1c26.5-16.2,54.3-30.4,75-55c43.3-52.4,33-114.4-24.6-140.9c-6.5-40.1-25.9-65.3-55-70.5
		c-39.4-6.5-67.2,11-86,49.1c-19.4-38.8-47.8-56.9-87.3-48.5c-27.8,6.5-46.5,24.6-49.8,55.6c0,0.7-0.8,5.3-1.3,6.5
		c-2.6,2.6-4.5,5.2-7.1,7.8C152.8,248.7,151.5,249.3,150.2,249.9z M440.5,259.6c32.3,45.9,25.2,80.8-22,108.6
		c-8.4,4.5-16.2,10.3-25.2,14.2c-53,22-89.2,56.2-89.2,118.3c0,3.2-4.5,6.5-7.8,11.6c-1.9-2.6-3.2-3.9-3.2-5.2
		c-0.6-59.5-28.4-100.2-84.7-122.2c-5.8-2.6-11-5.8-16.8-9.1c-60.8-33.6-68.5-62.1-35.6-121.5c18.1,68.5,58.2,119.6,120.9,157.1
		c8.4-25.2-23.9-53,11.6-73.1c-14.9-10.3-36.9,1.3-44-22.6c34.9-0.6,49.8-14.2,31-48.5c-7.8-14.9,10.3-18.7,16.2-27.8
		c4.5-6.5,11-6.5,15.5,0.6c5.8,9.1,22,12.3,15.5,28.4c-12.9,30.4-9.7,50.4,31,45.3c-5.8,25.9-28.4,13.6-40.1,22
		c11,13.6,11.6,22.6,4.5,77.6c55.6-38.1,102.1-78.2,115.7-144.8c1.3-2.6,3.2-5.2,4.5-7.8L440.5,259.6z" fill="currentColor"/>
</svg>