<svg width="24" height="24" viewBox="0 0 595.3 841.9" fill="none" xmlns="http://www.w3.org/2000/svg">
  <path fill-rule="evenodd" clip-rule="evenodd" d="M312.1,200.4c9.2,20.4,16.6,27,44.7,39.7l33.7,15.2l42.9-22.5c39.3-20.6,56.2-22.5,33.8-3.9
		c-24.3,20.2-39.4,59-44.5,114.5c-4.8,52.5-4.4,56.6,9.6,84.2c8.1,16,14.7,30.3,14.7,31.9s-13.8-3.6-30.8-11.5
		c-29.7-13.9-31.1-14-39.7-3.6c-4.9,5.9-22.1,20.7-38.1,32.9c-16,12.2-31.3,27.8-33.9,34.6l-4.8,12.5l-6.9-12.6
		c-3.8-6.9-23.1-24.5-42.9-39s-37.1-29.8-38.5-34c-1.9-5.7-10.6-3.6-34.1,8c-17.4,8.6-32.3,14.9-33.2,14s6.1-15.9,15.5-33.4
		c16.7-30.9,17-33.2,12.6-85.3c-4.5-53.8-19.8-92.9-44.1-113.1c-22.4-18.6-5.5-16.6,33.8,3.9l42.9,22.5l33.7-15.2
		c28.1-12.7,35.5-19.3,44.7-39.7c6-13.5,12.6-24.5,14.5-24.5S306.1,186.9,312.1,200.4z M209.9,361.8c13.7,33.2,24.3,38.8,45.2,23.9
		l17.2-12.3l-34.2-16.7c-18.8-9.2-34.9-16.7-35.7-16.8C201.5,339.9,204.9,349.8,209.9,361.8z M354.1,357.5l-31.4,15.9l17.8,12.7
		l17.8,12.7l11.8-12.6c12.2-13.1,26.6-46.9,19.4-45.3C387.3,341.2,371.4,348.8,354.1,357.5z" fill="currentColor"/>
</svg>