<svg width="24" height="24" viewBox="0 0 595.3 841.9" fill="none" xmlns="http://www.w3.org/2000/svg">
  <path fill-rule="evenodd" clip-rule="evenodd" d="M198.9,194.8c92,20.6,87.3,18.7,72.7,29.9c-6.8,5.1-20.2,12.2-29.8,15.7s-17.5,9.7-17.5,13.9
		c0,12.1,74.3,82.2,82,77.4c9.8-6,8.7-16.5-2.9-29.4c-8.8-9.7-8.8-13.5-0.7-32.9c14.4-34.6,45.1-52.7,85.8-50.9
		c49.4,2.2,77.5-16.8,44-29.7c-12.3-4.7-12.8-6.1-3.7-9.8c13.3-5.4,34.6,5.6,43.7,22.7c5.4,10.1,4.6,16.5-3.4,28.8
		c-5.7,8.7-14.5,17.4-19.5,19.3c-7.5,2.9-9.2,23.4-9.2,112.1v108.6l19.2,19.8l19.2,19.8l-15.2,14.2l-15.2,14.2L429,519l-19.4-19.4
		H304.7H199.9l-19.1,19.1c-10.5,10.5-23.6,19.1-29.1,19.1c-23.2,0-46.5-43.2-29.1-54c3.5-2.2,6.4,0.4,6.4,5.6s3.1,11.5,6.9,13.8
		c13.2,8.2,20.8-9.9,19.8-47.1c-1.2-45.3,14.9-74.2,51.6-92.1c22.8-11.2,24.7-11.2,36.2-0.8c12,10.8,31.7,9.2,31.7-2.6
		c0-5.9-76.3-76.9-82.6-76.9c-1.7,0-9.9,11.7-18.1,26.1c-8.2,14.3-17,23.6-19.6,20.6s-11-32.6-18.7-65.8
		c-22.5-97.4-21.8-90.4-9-86.6C133.4,179.7,165.7,187.3,198.9,194.8z M391.8,262.5c-7.5,1.5-18.7,8.3-24.9,15.1
		c-9.9,11-10.2,14.3-2.4,28.9c9.5,17.7,10.6,16-28.9,44.3c-12.1,8.7-10.5,11.2,36.5,58.2l49.1,49.1v-100c0-76.3-1.9-99.8-7.9-99.2
		C409,259.5,399.3,261.1,391.8,262.5z M282.3,407.5c-16.3,24-20.6,25.7-39.4,15.6c-17.6-9.4-45.6,18.9-42.8,43.3l2,17.4l96.9,1.8
		c53.3,1,96.9-0.4,96.9-3c0-5.4-90-97.2-95.2-97.2C298.9,385.3,290.6,395.3,282.3,407.5z" fill="currentColor"/>
</svg>