<svg width="24" height="24" viewBox="0 0 595.3 841.9" fill="none" xmlns="http://www.w3.org/2000/svg">
  <path fill-rule="evenodd" clip-rule="evenodd" d="M408.3,201.7c20.3,52.7-25,77.9-35.1,116.1c-1.2,4.6-19.4,7.1-29.1,5.8c-4.8-0.6-13.4-13.9-11.7-18.1
		c20.4-50.5-16.5-85.2-32.8-129.6c-7.6,17-10.8,33-20.3,43.3c-21.7,23.6-20.2,50.6-14.6,77.4c3.1,15,2.4,24.1-12.4,28.5
		c-16.1,4.8-27.4,0.1-32.7-17.3c-3.2-10.6-5.9-26.1-13.5-29.8c-19.1-9.2-17.8-24.7-19.4-40.3c-1-10.2-1.6-20.5-2.4-30.8
		c-11.1,11.7-17,24.2-22.6,36.9c-15.6,35.5-25,70.5,10.7,100.8c2.6,2.2,5.1,6.8,4.6,9.9c-7,41.2,23.3,52.8,51.4,67.7
		c10,5.3,25.5,18.2,24.1,24.1c-11.3,45.2,29.4,61.1,45.9,91.9c10.3-12.2,20.8-21.8,27.7-33.5c8.1-13.7,19.8-29.8,18.2-43.7
		c-2.7-24.7,7.2-34.3,27.5-41.6c28.5-10.4,55.2-23,49.9-61.6c-0.6-4.6,3.2-10.6,6.4-14.8C459,302.5,453.4,245.8,408.3,201.7
		L408.3,201.7z" fill="currentColor"/>
</svg>
