<svg xmlns="http://www.w3.org/2000/svg" viewBox="0 0 150 150">
<!-- Momir Vig, Simic Visionary avatar emblem (Momir Basic format). Original art vectorized via QuiverAI; recoloured to currentColor for UI tinting. -->
  <style type="text/css">.cls-0 {fill:currentColor;}</style>
  <path class="cls-0" d="m75.6 1.7c-34.7 0.1-71.5 27.1-72.3 72.1-0.7 41.4 30.9 74.4 72.1 74.6 10 0 18-1.8 25.6-4.4 10.7-5.1 45.7-22 45.7-68.2 0-34.9-26.9-74.1-71.1-74.1zm-61.6 101.6c-3-6.9-5.7-15.6-6.8-27.3-0.7-32 22.4-64.8 55.5-68.3 4.9-1 10.5-1.4 13.9-1.3 32.6 0 66.4 27.1 66.4 69 0 5.6-0.7 10.7-1.8 15.3-4.8-6-10.8-7.3-15.2-7.3-3.8 0-7.8 0.9-11.6 4.2 2.3-3.6 3.8-7.8 3.8-12.7-0.2-8.5-5.3-16.7-14.1-21.4l2.6-4.9c3.1-5.9 8.6-9.1 9.4-14-1 0-12.4 4.5-17.5 7.4 0.5-4 0.8-7.4 0.7-11.2-0.5-12.6-10.8-22.6-23-22.5-9.7 0-22.7 7.7-22.8 23.6 0 3.4 0.5 7.1 0.8 10.3-3.6-2.4-14.3-6.7-17.4-7.6 1.1 5.4 6.7 8.8 9.9 14.5 1.2 2.3 2.1 4.3 3.7 6.1 3.8 4.5 4.8 5.3 6.9 5.4l1.4 8.9 0.9 1.5v4.8c-3.7 1.1-7.1 3.2-7.1 6.2v4.4l-5.9 2.5c-1-0.7-2.4-1.3-3.9-1.2-0.2-2.9-1.9-7-2.5-8.6 0.8-1.6 0.2-2.5 0.6-2.5l1.4-0.6 1.4 1.2c0.3 0 0.2 2.1 1.5 3.6s2.5 1.5 3.2 1.4c1.4-0.2 1.4-1.5 1.1-1.9-0.7-2.6-0.5-4.2-0.6-5.5-0.1-1.1-1.8-2.1-4-5.3-0.6-0.7-1.5-1.2-2.4-1l-5 1.5 2.8-3.3 2.3 0.3 1.4-0.1c1.2 1.3 3 2.2 4.6 2.6 0.9 0 3.9-0.1 3.7-2.8-0.2-0.7-1.3-1.2-2.3-2.2-1.2-1.2-2.2-2.7-3.2-3.4l-4.8-0.7-3.4-0.9c-0.8 0-1.5-0.1-2.2 0.8l-4.7 4.8c0.3-1.2 1.3-4.8 1.4-4.8 1.2-0.8 3.8-2.9 4.1-3.4 6.5 0.2 8.7-3.5 7.3-6-0.2-0.3-0.6-0.6-0.9-0.5-2.6 0.2-4.6-0.1-7.7-0.4-1.4-0.3-2.2 0.6-2.9 1.1l-5 3.4c-1.4 0.7-1.7 1.1-2 2.1l-1.5 5.9-0.9-3s1.6-5.9 1.3-6.9c0.6-0.3 2.8-3.1 3.2-4.6 0.8-0.4 4.7-6.8 0.9-8.7-1.1-0.5-1.9-0.3-2.3 0.6l-2.4 3.4c-0.9 0.1-2.9 3.1-6 5.7l-0.2 0.5c-0.4 3.5-1.8 8-2.6 9.9v0.8c2.6 7.8 2.5 10.2 2.3 13.2l0.2 0.9c2.5 3.7 5.5 13.2 6.1 17.6-5.1 2.5-8.1 5.8-11.1 11.3v0.1zm102.1-45.2c-1.3 1.9 1.8 7.1 2.1 15.9-0.1 5-1.4 9.3-3.8 13.6 1.6-3.3 2.5-7 2.6-9.4 0.6-8.2-2.9-17.8-12.9-24.7zm-6.9 57zm-2.8-40.8m3-16-4.4 0.5h-0.1 0.1zm3.3-20.6c-2.1 3.4-9.8 5.7-15.2 11.9l-0.3-2.9c0.7-3.8 7.8-5.8 15.8-9.2zm-12.8 21.1 0.6-0.7c4.3 1.6 11.7 6.7 11.7 16.3 0 4.2-1.6 8.7-5 12.3-1 0.2-2.7 1.5-2.9 1.6l-4.7-2v-4.9c-0.4-2.9-3.7-4.7-6.9-5.6l0.2-4.9 0.8-1.5 1.5-8.8c1.4 0.4 4.1-1.1 4.7-1.7zm2.4 36m-3.4-6.6 3.3 1.3c-1.3 0.2-3.1 1.6-4.9 3.2 1.1-1.8 2.1-3 2-4.5zm13.4 1.9c-5.3-0.7-9.1 4.2-9.1 8.9-0.5-0.8-1-2.1-0.9-3.2 0.6-4.4 3.9-7.3 6.4-7.3 1.5 0 2.8 0.5 4 1.5h-0.4zm-5.9-31.3c0.3-1.2 0.3-1.2 0 0-0.5-0.8-0.5-0.8 0 0 0.3-1.2 0.3-1.4 0 0zm2.2-2.1 1.1 1.2-0.1 0.1h-0.1l-0.2 0.2-2.4 0.8h-1.8zm3.9 6.3-2-2-1.6-0.6 1-0.8 0.5 0.3 0.5-0.3 2.1 0.9-0.1 1.5zm1.6 4.4-2.2-1.9c0.8-1.1 2-1 2.4-0.8 0.4 0.3 1.3 2.5 1.3 2.7zm1 2.6h1l0.5 3.5-2.7 0.1 0.6-3.3 0.6-0.3zm-0.8 4.6c1.1-0.3 1.7-0.3 2.3 0.2 0.1 1.3-0.2 3.1-0.4 3.2l-2.4-0.4zm-27.7 10.8 2-5.7 2-5.2-0.1 9.2c-1.3 0.6-2.8 1.2-4.4 1.7zm4.1-21.7c0.9-0.8 2.6-3.2 2.6-3.4l-1.6 8.5-4.3 5.7c1.6-4.5 0.9-8.1 3.3-10.7zm-35.6-14.2c-4-5.5-11.6-8.3-15.1-12.1 5.2 2.5 15 5.5 15.3 8.9l-0.2 3.3zm0.5 8.2c-4.2-2.5-7.7-11.3-11.3-15.2l4 2.7 1.9 3 0.1-1.3 1.1 1.3c-0.5 3.4 1.5 5.3 2.9 6.6l0.2-0.2 1.2 1.3zm-29.3-14.1 1.5-3.1c2.1 1.2 0.3 5.5-0.9 6.2v0.5c-0.9 1.2-2.9 4.1-4.1 4 1.3 1.4-0.6 7.7-1.3 8.3 1.1 0.5 2.1 7.1 1.7 7.9l-0.2 1.1c2.4-1.9 2.5-4.6 3.4-6.6l1.5-4.8 7.5-5.2c0.9-0.5 2.6 0.6 7.9 0.1 0.1 2.4-5 3.6-6.7 2.6-0.5 1.1-4.2 4.2-5.8 4.2 0.8 1.6-1.2 6.4-2.1 8.8-0.4 0.8-1.3 1.7-2.1 1.9 0.3 0.4 3 0 3.9-0.7l7.4-7.4c0.4-0.3 1 0 1.5 0.1l6.2 1.2 0.8 0.6 1.2 1.3 3 2.4c-0.5 1.5-3.7 0.6-5.7-1.8-1.6 0.3-4-0.1-4.4-0.3l-0.9-0.3-0.3 0.6-4.8 5.3c-0.2 0.7-2.4 1.7-2.4 1.7 0.8 0.5 2.6 0.4 3.8 0.2l6.5-2.1c0.7-0.3 1.3 0.2 1.5 0.7l3.3 4.2 0.2 3.3 0.5 2.1c-1.3-0.1-2.2-3.9-2.3-4.5l-1.3-0.6-1.4-2c-1.2 0.9-3.4 1.9-5.1 1.9 2.1 2 0.7 3.7-0.1 5.1h1c3.3 8.6 2.7 11.1-0.3 15.9l-1.3 2.7c0.5 0.8 1.2 1.8 0.9 2.4-0.9 1.9-4 20.1-4.7 27.6l-2.6-2.1c1.4-8.6 5.5-25 5.5-25l-2.7-2.4c0.9-0.5 3.7-4.2 3.7-8.5 0-3.6-2.6-11.2-3.2-13.9-0.5-0.6-1.1-1.5-0.4-3.2-2 1.1-2.5 2.1-2.7 3.2-1.3-2.3-3.8-3.2-2-5.8-1.8 1.2-2.5 2.3-2.5 4.3l1.5 8.6-2.9-9.3-1.5-1.7c-0.8-1.1-0.3-1.9 0-3.3-1.1 1.4-1.9 1.6-1.9 4.5l4.8 14.5 1.3 4.6-0.7 2.7c0.5 1.4 1.5 2.8 2.1 3.3l-2.1-0.2c-1 0-1.1 0.9-2.1 4.3l-4.8 12.4-1.7-2.4c2.3-4.6 5.9-12.8 5.9-16.3l1.6-1.5c0.5-5-1.4-11.5-5.4-22.4l-1-0.4 1.4-1.1zm16.5 45.9c2.9-0.4 6 2.7 6.1 6.2-0.3 1.2-0.3 2.5-0.3 2.8l-0.9 0.3c0.2-2.7-2-6.9-4.9-7.5zm-28.7 16.4c1.4-3.7 5.9-9.3 10-11.8l-0.1 0.8-1.2 1.5c-0.3 3.3-5.3 13.9-5.9 15zm26.8 16.8c1.7-1.3 3-1.1 4-0.2l-0.1 1.9c-1.1-0.8-1.9-0.9-3.8-0.1zm0.1 2.3c2.1-1.9 2.9-0.9 3.7 0-0.3 4.5 1.7 8.5 3.8 11.4-5.3-2.5-7.6-6.5-7.5-11.4zm7-3c-2.4-2.5-6.8-2.6-9.4-0.1v-3.3c3.1-2.9 7.8-1.7 9.4 0.1zm-3.6-6.6c-1-0.2-1.3-0.3-2.9 0.3 0-1.3 0-3.5 0.2-4.1 1.7-1.6 2.8-0.5 3.5 0.3-0.4 1.2-0.1 3.8-0.2 3.7zm-2.4-4.8c0-1.1 0.9-4.5 1.7-4.6 1.2-0.5 2.2-0.1 2.7 1-0.2 1-0.8 2.4-1 3.6-0.9-0.7-2-0.9-3.4-0.1zm1.9-5.1c0.4-1.2 1.7-3.3 2.5-3.3 1-0.2 2 0.9 2.1 1.8-0.6 0.4-1.8 2.1-1.9 2.6-0.5-0.9-1.7-1.7-2.7-1.1zm2.8-3.8 3.2-2c1.1-0.2 1.8 0.9 1.8 1.4l-0.1 0.9-2.5 1.4c-0.2-0.8-1.1-1.7-2.4-1.7zm3.2-3.8c0.7-1.5 2.7-3.8 5.5-2.3 3.1 1.5 3.5 6.3-1.7 7.9 3.5-0.9 2.7-6.4-1-6.4-0.8 0-1.7 0.8-2.8 0.8zm1.8 0.7 1.2-0.1c1 0.4 1.4 1.2 1.2 2.5l-1.6 0.5c0.2-0.8-0.1-2-1.4-2.4zm2.3-5.5c-1.1-1.1-2.9-2.8-4.9-3.1l3.7-1.8c0 2.4 0.8 3.8 1.5 4.9zm0.4-10.9c0-2.5 3.3-3.6 5.1-4.3-6.4 5 0.2 8.5 8.2 10.1 2.7 0.5 5.2 0.9 7.9 0.8 7.4 0 19.8-2.8 19.6-7.4-0.1-1.3-2.1-3.5-2.1-3.5 1 0.1 4.6 1.5 4.6 4 0 3.7-7.4 9.3-22.2 9.4-9.1 0.1-21.1-3.8-21.1-9.1zm7.3-6.3 3 9.1-3-1.3zm8.1 5-8.9-12c-0.7-1.2-1.2-6.9-1.4-7.5 1.4 1.5 2.9 2.6 3.1 3.6l0.3-0.2 1.6 7.6c-0.6-11.3-0.2-8.5-4.4-12.8-1.7-2.1-2.9-5.2-3.5-8.2-0.2-1.7 0.3-6.3 0.8-7.5 1-2.7 0.9-3.4 0.6-4.8-0.1 2.1-1.1 4.3-1.4 4.3-2-13.7-1.1-20.5 4.5-25.7 4-4.1 8.8-7 14.8-7.1 8.8-0.2 18.3 6 20.5 14.4 1.5 4.7 0.8 12-0.2 18.6-0.8-1.2-1.3-4-1.2-4.8-0.9 3.2 0.6 4.6 0.7 7.1l0.3 4c0.2 2.7-1.5 6.7-3.4 9.5-3.9 3.6-4.4 2.1-4.7 6.5l-0.9 8.5c-0.3 1.6-4.6 6.2-5.9 7.7-1.2 1.3-3.1 1.2-4.7 1.2l-0.5-2.7-0.5 2.7c-4.3 0.1-4.5-1.2-5.7-2.4zm0.8 12.6h9.3v2.2h-2.2v8.4c11.8 1.3 21.4 10 21.5 21.8 0 6-2.3 11.6-6.8 15.2l-4 1.1c2.6-1.6 5-4.2 5-5.6 0.1-3.6-3-3.5-2.9-6.7 0.1-2.3 2.6-3 2.3-6-0.9 2.7-5.6 2-5.7 7.2 0 1.6 0.9 2.5 0.6 3.9-0.2 1.9-2.7 2.4-3.3 2 1.1-0.9 1-3.3 0.1-3.9 0 3-3 4.6-4.9 2.1-1-1.5-0.2-4.2 0.9-3.3 0.7 0.1 1.6 1.8 1.1 2 1.1-0.8 1.3-2.8 0.3-4.5-1-1.5 0.5-3.7 3.1-0.4 0.6-3.9-3.1-5-2.6-6.4 0.7-1.1 2.6-0.5 3.8 0.8-0.1-2.9-4.7-3.7-4.8-4.8-0.3-0.7 1.5-1.7 3.1-0.5-0.4-1.5-2.9-2.2-4.5-2.1-2.1-0.4-1.1-2.3 1.9-2.3-1.4-1.7-4-1.1-5-0.3-3.8 0.6-1.4-2.5 1.5-3.7-5.3-1-7.4 3.9-8.5 3.5-0.8-0.6 1.2-3.6 1.3-3.6-3.8 1.8-3.8 4.3-4.2 4.9l-0.9 1.2c-0.4-0.8 0-2.3-0.1-2.3-1.1 0.7-1 3.6-1.7 4.1-0.4-0.1-0.9-2-1.2-2-0.7 3.2 0.8 3.4-0.4 4.9l-0.8 1.2-0.6-0.2c-0.7 1.5 0.1 2.7 0.1 3.1 0.3 0.6 1.2 1.2 1.7 1.2-0.1-0.3-0.5-1.6 0.4-1.2l0.4 0.5c0.3-0.1 0.4-0.6 0.6-0.9l0.5 0.3c-0.4-1.8 1-1.8 1-1.2 0.4-1.2 1.7-1.8 1.4 0-0.3 1.2-0.9 0.3-0.8 1.2 0.3 0.1 0 0.2-0.5 0.6l0.3 0.4-0.3 0.6c-0.5 0.4-1.2 0.6-1.8 0.5 0 0.6 0.9 2 1.6 2 1-0.5 2-1 2.7-0.8-1.4-1.2 0.9-4.3 2.5-4.6 1-0.2 0.5-2 0.9-2 1.5-0.6 3.1 1.8 1.7 4.4-2.6 4.9-9.3 6.1-8.3 13.6l-0.3 0.3zm0.9 7.2c-3.9 0.7-7.6 2.8-9.8 7.3-3.3 1-6.3 3.1-8 5.7l-2-1.5c2.2-2.3 5.9-5.1 8.4-6.1 1.9-2.6 5.5-6.4 10.5-7.3zm-9.4 41.4-3.7-1c-4-3.4-7-8.2-7-14.4 0.2-9.7 7.5-20.6 21.3-22.4-3.3 0.3-8 1.6-10.6 3.2 1.4-3.6 5.5-6 8.6-6.8zm35-28.4c-2-2.6-4.9-4.7-8-5.7-0.7-2.4-4.6-6.3-9.2-7.1v-2.1c4.6 0.6 8.5 3.4 10.7 7.3 3.4 1.3 6 3.3 8.3 6.1zm-0.8-10.2c-1.7 0-3.4-1.4-3.4-3.8 0.2-2.3 2.1-4.7 4.8-4.3 1.8 0.3 2.9 1.7 2.7 2.7-3-3.2-6.7 0-5.2 3.5 0.9 1.3 0.9 1 1.5 1.8zm1.8-1.8c-2.4-0.3-1.7-2.7 0-3.1l1.5 0.5c-1.5 0.5-1.7 1.6-1.5 2.6zm3.4 2.2c-0.9-0.5-2.1-1.5-2.6-1.7-0.5-1.5 0.6-2.5 1.7-2.7 0.3-0.1 2.5 1.5 3.1 2.2-1.3-0.1-2.1 1.4-2.2 2.2zm2.4 1.3c-0.8-0.8-2.2-1.1-1.5-1.8 0-0.2 1-1.7 2-1.2 0.7 0.4 1.5 1.5 2.2 2.9-1.1-0.2-2.2 0.5-2.7 1.5zm1.2 1.9c0.8-1.5 1.9-1.6 1.6-1.2 1.3-0.5 1.7 2.7 1.8 4.7-1.3-0.6-2.6 0-2.8 0.3-0.2-1.5-1.1-3.2-0.6-3.8zm0 4.8m3.5 12.2c0.5 0 0.4 0.3 1.4 1 0.4 4.8-2.3 9.4-8.5 11.9 2.6-2.6 4.4-6.6 4.1-11.9 0.4-0.5 1.3-1.6 3-1zm-3-1.4c1.1-0.7 2.9-1.1 3.8 0.2l-0.3 0.8c-1.1-0.2-2.5 0.4-3.5 0.7zm5.6-1.4c-2.8-1.6-7.6-0.7-8.9 1.1l-0.1-3.7c2.9-2.6 7.2-2.3 9.4 0v3.4zm-2.5-5.7c-1-0.2-1.6-0.2-3.6 0.8 1.3-0.7 0-5.5 0.8-4.8 1.3-1.7 2-0.5 2.6 0 0.4 0.3 0.2 3.5 0.2 4zm-3.6-57.2 1.6-2m1.3 4.7 2.1-2 0.8-0.1 2.8 1.9-0.3 2.1-2.3 1.9zm6.1 9.3 1.6-1 0.4 0.1 1.1 2.1-1.2 2.1-2.1 0.6zm-0.4 8 2.4 0.3 0.3 0.7-0.5 2.7-0.5 1-3-1.5zm0.3 7.6-0.9 1.7-3.6-1.1 1.6-2.1 1.6-0.4zm10.1 27.7c-5-0.8-12.5-5.8-12.5-15 0-7.3 6-13.3 14.1-13.3 5 0 10.9 2.1 14.7 8l-1.5 4.7c-8-3-15.8 2.8-15.5 11.4z"/>
  <path class="cls-0" d="m87.3 35c2.1-1.5 5.6-2.8 5.7 0.6-1.5-1.7-2-1.9-5.7-0.6z"/>
  <path class="cls-0" d="m68.9 35.9c2.6 1.1 5.4 2.1 8.1 2.2 1 0 3.2-0.6 3.2-0.7-1.2 0.6-3.6 1.2-4.8 1.1-2.5-0.3-4.9-1.3-6.5-2.6z"/>
  <path class="cls-0" d="m61.3 20.1c-0.9 5.8 2.1 8 1.1 13.4l-1 1.4c-0.4 1.2 1 3.3 1.3 3.7 3.7 0.4 7.9 2.8 12.4 3.5 6.3 0.6 9.8-3.1 15.4-3.7 0.9 0 1.4 0.2 1.7 1.2-2.3-1.9-8.6 2-15.5 3.4-4 0.4-11.6-4-13.6-3.7l-1.6 0.3 0.4-1-1.2-2.7c-0.4-1.8 1.9-2.4 0-8.3-1.2-4.5-0.1-6.7 0.4-7.5z"/>
  <path class="cls-0" d="m76.4 46.4c1.2 0 3.7-1 4.7-1.3 3.9-1.6 8.9-4.4 11.1-2-2.8-1-4.3-0.1-10.1 2.3-1.7 0.8-4.4 1.3-5.7 1.5-1.8 0-3.4-0.5-3.5-0.5 0.8 2 2.2 4 1.2 6l2-0.4 1.3 0.5c-0.5-1.8 0.3-3 0.3-3-0.1 2.5 1.7 2.6 2.3 2.5 1.6-0.4 9.4-4.9 10.6-5.1l0.3 0.1 2.5 1-2 1.9 2.5-0.4c-0.4 1.1-2.5 1.6-2.5 1.6l2.1 0.8-2.5 0.3 1.4 1.5c-1.3-0.7-1.5-0.6-2.5 0.4 0.2-0.1 0.8-2.1 0-2-1.5 1.3-2.3 2.4-4.8 2.2 0.8 0.6 2.6 1.3 3.8 0.8-2.3 2.6-5.9 0.6-6.5 0.5l3.1 3.3c-2.6-0.7-6.1-4.4-6.4-4.2-0.5 1.3-1.2 4.7-1.5 6.7l0.1-7.7c-1-0.6-2.3-1-3.4 0v6.9l-1.6-5.7c-2.2 1.2-0.7 4.2 0 5-1.7-0.4-1.6 2.8-1.1 3 2.4 0 3 2 3.9 2.2 2.4 0.4 1.5-0.7 4-2 1-0.2 1.2-0.2 0.9-2.2l-0.9-1c0.5-0.5 1.1-0.8 2.2 1.2 1.2 1.8 3.5 6.6 3.4 11.1-1-4.2-2.2-6.1-4.1-8.6-0.4 1-1.9 1.1-2.1 1.5l-1.8 2-0.4 2.5-0.5-1.9c-0.2-0.1-0.3 0-0.5 0l-0.5 1.9-0.5-2.6-2-2-2-1.3c-2 2.4-3.6 5.9-4 8.8 0-5.5 2.9-10.6 4.7-12.8l-0.3-1.5c-0.2-0.5-0.2-1.3-0.2-2.1l-4 2.5 2.7-3c-2.2 0.5-3.9 1.5-6-0.5 0.9 0.5 2.5 0 3.1-0.6-2-0.1-3.1-1.5-3.8-2.4l-0.9 0.5 0.4 1.4-1.2-1-1.3 1c0.6-1 1.2-1.1 1.2-1.3l-2.5-0.8 2.1-1-1.6-0.5-0.7-0.9 2.5 0.6-1.9-2.2c1.1-0.5 2.5-1.2 3.2-1 1.4 0.7 8.9 4.7 10.3 5.2 2.1-0.2 1.4-1.6 0.9-3.1l-1.5-3c-4.3-1.6-7.9-4-10.5-2.9 2.6-2 6.5 0.3 9.5 1.5 1.5 0.8 3.1 1.5 5.5 1.8zm7.1 5.8c0.4 2.2 4.4 1.4 5.1-0.8l-1-0.3c-0.7 1.6-2.6 1.6-3.2 0.5zm-20.1-0.8c1.2 2.3 4.2 3 5.2 1.1l-0.6-0.9c-0.9 1.3-2.6 0.6-2.6-0.7z"/>
  <path class="cls-0" d="m68.6 74.1-0.7-0.7 1-1.5 0.8 0.5 4.2-0.8c1.1-0.2 1.7 0.8 3 0.3 0.7-0.5 1.2-0.3 2-0.2l3.2 0.7 0.8-0.4 0.7 0.6v0.1h-0.2l0.1-0.1 0.1 0.3-0.2-0.2 0.1 0.3 0.2 0.4-0.3 0.7-1.2-1.1-4.2-0.1-1.4 0.4-2.7-0.4h-3.3l-1.1 0.2z"/>
  <path class="cls-0" d="m70.2 77.1c1.3 0 2.7-1.1 2.9-2l-0.7-0.1 3-0.2 4.1 0.1-0.8 0.6 1.3 1.2 1.1 0.4-1.2 0.3 0.1 0.5-2.1-1c-1.2-0.5-4-0.3-4.8 0.2l-1 0.6-0.1-0.3z"/>
  <path class="cls-0" d="m67.6 118-1.9 2c0.9-0.4 1.4 0 1.9-2z"/>
  <path class="cls-0" d="m69.6 117.5c-0.2-0.9 0.5-1.5 1.8-2-0.3 0.1-0.4 1.6-1 2 1.2-0.1 1.1-0.9 1.3-1.6l0.5-0.9c-1.1 0.6-2.7 1.4-2.6 2.5z"/>
  <circle class="cls-0" cx="59.2" cy="131.2" r="2.3"/>
  <circle class="cls-0" cx="87.1" cy="114.2" r="2.1"/>
  <ellipse class="cls-0" transform="matrix(.9993 -.03755 .03755 .9993 -4.325 3.937)" cx="91.7" cy="119.6" rx="1.6" ry="1.6"/>
  <path class="cls-0" d="m129.6 94.1c-0.5 3.3-6 5-8.5 1.8-2.1-2.9 0.8-6.3 6.1-6 1.5-2.3 4.8 0.1 2.4 1.5 0.8 1 1 2.1 0 2.7zm-5.7-3.1c-1 0-2.3 1-1.7 2.1 1.2 1.6 4.2 0.5 3.7-1.4-0.4-0.8-1.8-1-2-0.7z"/>
  <circle class="cls-0" cx="115.7" cy="98.6" r="1.4"/>
  <path class="cls-0" d="m125.4 109.1c0-4.5 3.5-8.7 9.5-9.1l3.5 0.1-0.8 2.3c-4.7-2.4-9.9 1.7-9.9 6.3 0 2.4 1.2 4.8 3.3 5.9l-1.4 2c-1.7-0.7-4.2-3.7-4.2-7.5z"/>
</svg>
