<svg xmlns="http://www.w3.org/2000/svg" viewBox="0 0 1000 480" font-family="-apple-system,Segoe UI,Helvetica,Arial,sans-serif"><defs><linearGradient id="gA" x1="0" y1="0" x2="0" y2="1"><stop offset="0%" stop-color="#7c9cff" stop-opacity=".42"/><stop offset="55%" stop-color="#7c9cff" stop-opacity=".12"/><stop offset="100%" stop-color="#7c9cff" stop-opacity="0"/></linearGradient><linearGradient id="gS" x1="0" y1="0" x2="1" y2="0"><stop offset="0%" stop-color="#56e0c2"/><stop offset="100%" stop-color="#7c9cff"/></linearGradient></defs><rect width="1000" height="480" rx="16" fill="#0a0c12"/><text x="78" y="40" fill="#e9edf6" font-size="21" font-weight="700">Card implementation progress</text><text x="78" y="64" fill="#8b93a7" font-size="13">5,196 distinct cards · 2026-01-18 → 2026-06-15 · 120 active days · busiest day +696</text><rect x="604" y="30" width="18" height="3" rx="1.5" fill="#7c9cff"/><text x="628" y="36" fill="#8b93a7" font-size="12">Total implemented</text><rect x="764" y="27" width="9" height="9" rx="2" fill="#56e0c2" opacity=".7"/><text x="780" y="36" fill="#8b93a7" font-size="12">Added per day</text><line x1="78" y1="440.0" x2="922" y2="440.0" stroke="#1a1f2c"/><text x="68" y="444.0" fill="#9fb2ff" font-size="11" text-anchor="end">0</text><line x1="78" y1="376.7" x2="922" y2="376.7" stroke="#1a1f2c"/><text x="68" y="380.7" fill="#9fb2ff" font-size="11" text-anchor="end">1,000</text><line x1="78" y1="313.5" x2="922" y2="313.5" stroke="#1a1f2c"/><text x="68" y="317.5" fill="#9fb2ff" font-size="11" text-anchor="end">2,000</text><line x1="78" y1="250.2" x2="922" y2="250.2" stroke="#1a1f2c"/><text x="68" y="254.2" fill="#9fb2ff" font-size="11" text-anchor="end">3,000</text><line x1="78" y1="186.9" x2="922" y2="186.9" stroke="#1a1f2c"/><text x="68" y="190.9" fill="#9fb2ff" font-size="11" text-anchor="end">4,000</text><line x1="78" y1="123.6" x2="922" y2="123.6" stroke="#1a1f2c"/><text x="68" y="127.6" fill="#9fb2ff" font-size="11" text-anchor="end">5,000</text><text x="932" y="444.0" fill="#56e0c2" font-size="11">0</text><text x="932" y="391.9" fill="#56e0c2" font-size="11">233</text><text x="932" y="339.7" fill="#56e0c2" font-size="11">466</text><text x="932" y="287.6" fill="#56e0c2" font-size="11">699</text><text x="78.0" y="466" fill="#5a6276" font-size="11" text-anchor="middle">Jan</text><text x="157.8" y="466" fill="#5a6276" font-size="11" text-anchor="middle">Feb</text><text x="317.5" y="466" fill="#5a6276" font-size="11" text-anchor="middle">Mar</text><text x="494.3" y="466" fill="#5a6276" font-size="11" text-anchor="middle">Apr</text><text x="665.4" y="466" fill="#5a6276" font-size="11" text-anchor="middle">May</text><text x="842.2" y="466" fill="#5a6276" font-size="11" text-anchor="middle">Jun</text><rect x="110.7" y="396.4" width="3.1" height="43.6" fill="#56e0c2" opacity=".7"/><rect x="156.3" y="433.1" width="3.1" height="6.9" fill="#56e0c2" opacity=".7"/><rect x="184.8" y="422.8" width="3.1" height="17.2" fill="#56e0c2" opacity=".7"/><rect x="190.5" y="430.2" width="3.1" height="9.8" fill="#56e0c2" opacity=".7"/><rect x="196.2" y="432.2" width="3.1" height="7.8" fill="#56e0c2" opacity=".7"/><rect x="201.9" y="436.9" width="3.1" height="3.1" fill="#56e0c2" opacity=".7"/><rect x="207.6" y="436.0" width="3.1" height="4.0" fill="#56e0c2" opacity=".7"/><rect x="213.3" y="435.3" width="3.1" height="4.7" fill="#56e0c2" opacity=".7"/><rect x="219.0" y="439.8" width="3.1" height="0.2" fill="#56e0c2" opacity=".7"/><rect x="224.7" y="432.6" width="3.1" height="7.4" fill="#56e0c2" opacity=".7"/><rect x="230.4" y="438.2" width="3.1" height="1.8" fill="#56e0c2" opacity=".7"/><rect x="236.1" y="433.1" width="3.1" height="6.9" fill="#56e0c2" opacity=".7"/><rect x="241.8" y="436.2" width="3.1" height="3.8" fill="#56e0c2" opacity=".7"/><rect x="253.2" y="439.8" width="3.1" height="0.2" fill="#56e0c2" opacity=".7"/><rect x="258.9" y="434.6" width="3.1" height="5.4" fill="#56e0c2" opacity=".7"/><rect x="264.6" y="435.1" width="3.1" height="4.9" fill="#56e0c2" opacity=".7"/><rect x="270.3" y="437.5" width="3.1" height="2.5" fill="#56e0c2" opacity=".7"/><rect x="276.0" y="438.9" width="3.1" height="1.1" fill="#56e0c2" opacity=".7"/><rect x="281.7" y="439.8" width="3.1" height="0.2" fill="#56e0c2" opacity=".7"/><rect x="287.4" y="435.3" width="3.1" height="4.7" fill="#56e0c2" opacity=".7"/><rect x="293.1" y="434.6" width="3.1" height="5.4" fill="#56e0c2" opacity=".7"/><rect x="298.8" y="434.0" width="3.1" height="6.0" fill="#56e0c2" opacity=".7"/><rect x="304.6" y="430.8" width="3.1" height="9.2" fill="#56e0c2" opacity=".7"/><rect x="310.3" y="431.7" width="3.1" height="8.3" fill="#56e0c2" opacity=".7"/><rect x="316.0" y="419.4" width="3.1" height="20.6" fill="#56e0c2" opacity=".7"/><rect x="321.7" y="431.7" width="3.1" height="8.3" fill="#56e0c2" opacity=".7"/><rect x="327.4" y="434.6" width="3.1" height="5.4" fill="#56e0c2" opacity=".7"/><rect x="333.1" y="432.8" width="3.1" height="7.2" fill="#56e0c2" opacity=".7"/><rect x="338.8" y="437.5" width="3.1" height="2.5" fill="#56e0c2" opacity=".7"/><rect x="344.5" y="433.1" width="3.1" height="6.9" fill="#56e0c2" opacity=".7"/><rect x="350.2" y="434.0" width="3.1" height="6.0" fill="#56e0c2" opacity=".7"/><rect x="355.9" y="432.6" width="3.1" height="7.4" fill="#56e0c2" opacity=".7"/><rect x="361.6" y="435.7" width="3.1" height="4.3" fill="#56e0c2" opacity=".7"/><rect x="367.3" y="438.0" width="3.1" height="2.0" fill="#56e0c2" opacity=".7"/><rect x="373.0" y="439.1" width="3.1" height="0.9" fill="#56e0c2" opacity=".7"/><rect x="378.7" y="415.6" width="3.1" height="24.4" fill="#56e0c2" opacity=".7"/><rect x="384.4" y="431.7" width="3.1" height="8.3" fill="#56e0c2" opacity=".7"/><rect x="390.1" y="434.9" width="3.1" height="5.1" fill="#56e0c2" opacity=".7"/><rect x="395.8" y="434.6" width="3.1" height="5.4" fill="#56e0c2" opacity=".7"/><rect x="401.5" y="438.7" width="3.1" height="1.3" fill="#56e0c2" opacity=".7"/><rect x="407.2" y="436.6" width="3.1" height="3.4" fill="#56e0c2" opacity=".7"/><rect x="412.9" y="433.3" width="3.1" height="6.7" fill="#56e0c2" opacity=".7"/><rect x="418.6" y="439.8" width="3.1" height="0.2" fill="#56e0c2" opacity=".7"/><rect x="424.3" y="436.2" width="3.1" height="3.8" fill="#56e0c2" opacity=".7"/><rect x="435.7" y="438.2" width="3.1" height="1.8" fill="#56e0c2" opacity=".7"/><rect x="441.4" y="439.3" width="3.1" height="0.7" fill="#56e0c2" opacity=".7"/><rect x="452.8" y="438.7" width="3.1" height="1.3" fill="#56e0c2" opacity=".7"/><rect x="458.5" y="437.3" width="3.1" height="2.7" fill="#56e0c2" opacity=".7"/><rect x="464.2" y="431.3" width="3.1" height="8.7" fill="#56e0c2" opacity=".7"/><rect x="469.9" y="430.8" width="3.1" height="9.2" fill="#56e0c2" opacity=".7"/><rect x="475.6" y="434.0" width="3.1" height="6.0" fill="#56e0c2" opacity=".7"/><rect x="481.3" y="432.4" width="3.1" height="7.6" fill="#56e0c2" opacity=".7"/><rect x="487.0" y="438.7" width="3.1" height="1.3" fill="#56e0c2" opacity=".7"/><rect x="498.4" y="434.9" width="3.1" height="5.1" fill="#56e0c2" opacity=".7"/><rect x="504.1" y="429.9" width="3.1" height="10.1" fill="#56e0c2" opacity=".7"/><rect x="509.8" y="439.3" width="3.1" height="0.7" fill="#56e0c2" opacity=".7"/><rect x="549.8" y="439.8" width="3.1" height="0.2" fill="#56e0c2" opacity=".7"/><rect x="555.5" y="436.0" width="3.1" height="4.0" fill="#56e0c2" opacity=".7"/><rect x="561.2" y="439.1" width="3.1" height="0.9" fill="#56e0c2" opacity=".7"/><rect x="566.9" y="439.8" width="3.1" height="0.2" fill="#56e0c2" opacity=".7"/><rect x="572.6" y="438.0" width="3.1" height="2.0" fill="#56e0c2" opacity=".7"/><rect x="578.3" y="437.1" width="3.1" height="2.9" fill="#56e0c2" opacity=".7"/><rect x="584.0" y="438.0" width="3.1" height="2.0" fill="#56e0c2" opacity=".7"/><rect x="589.7" y="437.8" width="3.1" height="2.2" fill="#56e0c2" opacity=".7"/><rect x="595.4" y="434.4" width="3.1" height="5.6" fill="#56e0c2" opacity=".7"/><rect x="601.1" y="437.8" width="3.1" height="2.2" fill="#56e0c2" opacity=".7"/><rect x="606.8" y="439.6" width="3.1" height="0.4" fill="#56e0c2" opacity=".7"/><rect x="612.5" y="437.8" width="3.1" height="2.2" fill="#56e0c2" opacity=".7"/><rect x="618.2" y="439.3" width="3.1" height="0.7" fill="#56e0c2" opacity=".7"/><rect x="623.9" y="436.2" width="3.1" height="3.8" fill="#56e0c2" opacity=".7"/><rect x="635.3" y="429.9" width="3.1" height="10.1" fill="#56e0c2" opacity=".7"/><rect x="641.0" y="436.2" width="3.1" height="3.8" fill="#56e0c2" opacity=".7"/><rect x="646.7" y="439.3" width="3.1" height="0.7" fill="#56e0c2" opacity=".7"/><rect x="652.4" y="432.8" width="3.1" height="7.2" fill="#56e0c2" opacity=".7"/><rect x="658.1" y="437.1" width="3.1" height="2.9" fill="#56e0c2" opacity=".7"/><rect x="663.8" y="433.5" width="3.1" height="6.5" fill="#56e0c2" opacity=".7"/><rect x="675.2" y="431.5" width="3.1" height="8.5" fill="#56e0c2" opacity=".7"/><rect x="680.9" y="431.1" width="3.1" height="8.9" fill="#56e0c2" opacity=".7"/><rect x="686.6" y="430.2" width="3.1" height="9.8" fill="#56e0c2" opacity=".7"/><rect x="692.3" y="435.1" width="3.1" height="4.9" fill="#56e0c2" opacity=".7"/><rect x="698.0" y="432.8" width="3.1" height="7.2" fill="#56e0c2" opacity=".7"/><rect x="703.7" y="433.5" width="3.1" height="6.5" fill="#56e0c2" opacity=".7"/><rect x="709.4" y="433.7" width="3.1" height="6.3" fill="#56e0c2" opacity=".7"/><rect x="715.1" y="431.7" width="3.1" height="8.3" fill="#56e0c2" opacity=".7"/><rect x="720.8" y="431.9" width="3.1" height="8.1" fill="#56e0c2" opacity=".7"/><rect x="726.6" y="435.5" width="3.1" height="4.5" fill="#56e0c2" opacity=".7"/><rect x="732.3" y="438.0" width="3.1" height="2.0" fill="#56e0c2" opacity=".7"/><rect x="738.0" y="434.0" width="3.1" height="6.0" fill="#56e0c2" opacity=".7"/><rect x="743.7" y="430.4" width="3.1" height="9.6" fill="#56e0c2" opacity=".7"/><rect x="749.4" y="436.4" width="3.1" height="3.6" fill="#56e0c2" opacity=".7"/><rect x="755.1" y="434.6" width="3.1" height="5.4" fill="#56e0c2" opacity=".7"/><rect x="760.8" y="436.0" width="3.1" height="4.0" fill="#56e0c2" opacity=".7"/><rect x="766.5" y="439.8" width="3.1" height="0.2" fill="#56e0c2" opacity=".7"/><rect x="772.2" y="439.3" width="3.1" height="0.7" fill="#56e0c2" opacity=".7"/><rect x="777.9" y="438.9" width="3.1" height="1.1" fill="#56e0c2" opacity=".7"/><rect x="783.6" y="438.2" width="3.1" height="1.8" fill="#56e0c2" opacity=".7"/><rect x="789.3" y="438.4" width="3.1" height="1.6" fill="#56e0c2" opacity=".7"/><rect x="795.0" y="439.6" width="3.1" height="0.4" fill="#56e0c2" opacity=".7"/><rect x="800.7" y="438.9" width="3.1" height="1.1" fill="#56e0c2" opacity=".7"/><rect x="806.4" y="425.0" width="3.1" height="15.0" fill="#56e0c2" opacity=".7"/><rect x="812.1" y="404.9" width="3.1" height="35.1" fill="#56e0c2" opacity=".7"/><rect x="817.8" y="430.4" width="3.1" height="9.6" fill="#56e0c2" opacity=".7"/><rect x="823.5" y="425.7" width="3.1" height="14.3" fill="#56e0c2" opacity=".7"/><rect x="829.2" y="382.7" width="3.1" height="57.3" fill="#56e0c2" opacity=".7"/><rect x="834.9" y="414.7" width="3.1" height="25.3" fill="#56e0c2" opacity=".7"/><rect x="840.6" y="418.1" width="3.1" height="21.9" fill="#56e0c2" opacity=".7"/><rect x="846.3" y="421.9" width="3.1" height="18.1" fill="#56e0c2" opacity=".7"/><rect x="852.0" y="426.8" width="3.1" height="13.2" fill="#56e0c2" opacity=".7"/><rect x="857.7" y="430.2" width="3.1" height="9.8" fill="#56e0c2" opacity=".7"/><rect x="863.4" y="439.6" width="3.1" height="0.4" fill="#56e0c2" opacity=".7"/><rect x="869.1" y="387.0" width="3.1" height="53.0" fill="#56e0c2" opacity=".7"/><rect x="874.8" y="348.3" width="3.1" height="91.7" fill="#56e0c2" opacity=".7"/><rect x="880.5" y="396.6" width="3.1" height="43.4" fill="#56e0c2" opacity=".7"/><rect x="886.2" y="435.5" width="3.1" height="4.5" fill="#56e0c2" opacity=".7"/><rect x="891.9" y="435.5" width="3.1" height="4.5" fill="#56e0c2" opacity=".7"/><rect x="897.6" y="438.0" width="3.1" height="2.0" fill="#56e0c2" opacity=".7"/><rect x="903.3" y="284.3" width="3.1" height="155.7" fill="#56e0c2" opacity=".7"/><rect x="909.0" y="407.8" width="3.1" height="32.2" fill="#56e0c2" opacity=".7"/><rect x="914.7" y="424.1" width="3.1" height="15.9" fill="#56e0c2" opacity=".7"/><rect x="920.4" y="422.3" width="3.1" height="17.7" fill="#56e0c2" opacity=".7"/><path d="M 78.0 440.0 L 78.0 440.0 L 83.7 440.0 L 89.4 440.0 L 95.1 440.0 L 100.8 440.0 L 106.5 440.0 L 112.2 427.7 L 117.9 427.7 L 123.6 427.7 L 129.3 427.7 L 135.0 427.7 L 140.7 427.7 L 146.4 427.7 L 152.1 427.7 L 157.8 425.7 L 163.5 425.7 L 169.2 425.7 L 174.9 425.7 L 180.6 425.7 L 186.4 420.8 L 192.1 418.0 L 197.8 415.8 L 203.5 414.9 L 209.2 413.8 L 214.9 412.5 L 220.6 412.4 L 226.3 410.3 L 232.0 409.8 L 237.7 407.9 L 243.4 406.8 L 249.1 406.8 L 254.8 406.7 L 260.5 405.2 L 266.2 403.8 L 271.9 403.1 L 277.6 402.8 L 283.3 402.7 L 289.0 401.4 L 294.7 399.9 L 300.4 398.2 L 306.1 395.6 L 311.8 393.2 L 317.5 387.4 L 323.2 385.1 L 328.9 383.6 L 334.6 381.5 L 340.3 380.8 L 346.0 378.9 L 351.7 377.2 L 357.4 375.1 L 363.1 373.9 L 368.8 373.3 L 374.5 373.1 L 380.2 366.2 L 385.9 363.8 L 391.6 362.4 L 397.4 360.8 L 403.1 360.5 L 408.8 359.5 L 414.5 357.6 L 420.2 357.6 L 425.9 356.5 L 431.6 356.5 L 437.3 356.0 L 443.0 355.8 L 448.7 355.8 L 454.4 355.4 L 460.1 354.6 L 465.8 352.2 L 471.5 349.6 L 477.2 347.9 L 482.9 345.7 L 488.6 345.3 L 494.3 345.3 L 500.0 343.9 L 505.7 341.0 L 511.4 340.9 L 517.1 340.9 L 522.8 340.9 L 528.5 340.9 L 534.2 340.9 L 539.9 340.9 L 545.6 340.9 L 551.3 340.8 L 557.0 339.6 L 562.7 339.4 L 568.4 339.3 L 574.1 338.8 L 579.8 337.9 L 585.5 337.4 L 591.2 336.7 L 596.9 335.2 L 602.6 334.5 L 608.4 334.4 L 614.1 333.8 L 619.8 333.6 L 625.5 332.5 L 631.2 332.5 L 636.9 329.7 L 642.6 328.6 L 648.3 328.4 L 654.0 326.4 L 659.7 325.5 L 665.4 323.7 L 671.1 323.7 L 676.8 321.3 L 682.5 318.8 L 688.2 316.0 L 693.9 314.6 L 699.6 312.6 L 705.3 310.7 L 711.0 309.0 L 716.7 306.6 L 722.4 304.3 L 728.1 303.1 L 733.8 302.5 L 739.5 300.8 L 745.2 298.1 L 750.9 297.1 L 756.6 295.5 L 762.3 294.4 L 768.0 294.3 L 773.7 294.2 L 779.4 293.8 L 785.1 293.3 L 790.8 292.9 L 796.5 292.8 L 802.2 292.4 L 807.9 288.2 L 813.6 278.3 L 819.4 275.6 L 825.1 271.5 L 830.8 255.3 L 836.5 248.2 L 842.2 242.0 L 847.9 236.8 L 853.6 233.1 L 859.3 230.3 L 865.0 230.2 L 870.7 215.2 L 876.4 189.3 L 882.1 177.0 L 887.8 175.7 L 893.5 174.4 L 899.2 173.9 L 904.9 129.8 L 910.6 120.7 L 916.3 116.2 L 922.0 111.2 L 922.0 440.0 Z" fill="url(#gA)"/><path d="M 78.0 440.0 L 83.7 440.0 L 89.4 440.0 L 95.1 440.0 L 100.8 440.0 L 106.5 440.0 L 112.2 427.7 L 117.9 427.7 L 123.6 427.7 L 129.3 427.7 L 135.0 427.7 L 140.7 427.7 L 146.4 427.7 L 152.1 427.7 L 157.8 425.7 L 163.5 425.7 L 169.2 425.7 L 174.9 425.7 L 180.6 425.7 L 186.4 420.8 L 192.1 418.0 L 197.8 415.8 L 203.5 414.9 L 209.2 413.8 L 214.9 412.5 L 220.6 412.4 L 226.3 410.3 L 232.0 409.8 L 237.7 407.9 L 243.4 406.8 L 249.1 406.8 L 254.8 406.7 L 260.5 405.2 L 266.2 403.8 L 271.9 403.1 L 277.6 402.8 L 283.3 402.7 L 289.0 401.4 L 294.7 399.9 L 300.4 398.2 L 306.1 395.6 L 311.8 393.2 L 317.5 387.4 L 323.2 385.1 L 328.9 383.6 L 334.6 381.5 L 340.3 380.8 L 346.0 378.9 L 351.7 377.2 L 357.4 375.1 L 363.1 373.9 L 368.8 373.3 L 374.5 373.1 L 380.2 366.2 L 385.9 363.8 L 391.6 362.4 L 397.4 360.8 L 403.1 360.5 L 408.8 359.5 L 414.5 357.6 L 420.2 357.6 L 425.9 356.5 L 431.6 356.5 L 437.3 356.0 L 443.0 355.8 L 448.7 355.8 L 454.4 355.4 L 460.1 354.6 L 465.8 352.2 L 471.5 349.6 L 477.2 347.9 L 482.9 345.7 L 488.6 345.3 L 494.3 345.3 L 500.0 343.9 L 505.7 341.0 L 511.4 340.9 L 517.1 340.9 L 522.8 340.9 L 528.5 340.9 L 534.2 340.9 L 539.9 340.9 L 545.6 340.9 L 551.3 340.8 L 557.0 339.6 L 562.7 339.4 L 568.4 339.3 L 574.1 338.8 L 579.8 337.9 L 585.5 337.4 L 591.2 336.7 L 596.9 335.2 L 602.6 334.5 L 608.4 334.4 L 614.1 333.8 L 619.8 333.6 L 625.5 332.5 L 631.2 332.5 L 636.9 329.7 L 642.6 328.6 L 648.3 328.4 L 654.0 326.4 L 659.7 325.5 L 665.4 323.7 L 671.1 323.7 L 676.8 321.3 L 682.5 318.8 L 688.2 316.0 L 693.9 314.6 L 699.6 312.6 L 705.3 310.7 L 711.0 309.0 L 716.7 306.6 L 722.4 304.3 L 728.1 303.1 L 733.8 302.5 L 739.5 300.8 L 745.2 298.1 L 750.9 297.1 L 756.6 295.5 L 762.3 294.4 L 768.0 294.3 L 773.7 294.2 L 779.4 293.8 L 785.1 293.3 L 790.8 292.9 L 796.5 292.8 L 802.2 292.4 L 807.9 288.2 L 813.6 278.3 L 819.4 275.6 L 825.1 271.5 L 830.8 255.3 L 836.5 248.2 L 842.2 242.0 L 847.9 236.8 L 853.6 233.1 L 859.3 230.3 L 865.0 230.2 L 870.7 215.2 L 876.4 189.3 L 882.1 177.0 L 887.8 175.7 L 893.5 174.4 L 899.2 173.9 L 904.9 129.8 L 910.6 120.7 L 916.3 116.2 L 922.0 111.2" fill="none" stroke="url(#gS)" stroke-width="2.5" stroke-linejoin="round"/></svg>
